<svg width="20" height="21" viewBox="0 0 20 21" fill="none" xmlns="http://www.w3.org/2000/svg">
<g clip-path="url(#clip0_1_6657)">
<path d="M18.2757 9.72956V10.4701C18.2748 12.2059 17.7127 13.8949 16.6734 15.2852C15.634 16.6754 14.1731 17.6925 12.5086 18.1847C10.844 18.6768 9.06492 18.6177 7.43667 18.0162C5.80843 17.4146 4.41826 16.3029 3.4735 14.8467C2.52873 13.3905 2.08 11.6679 2.19421 9.93588C2.30842 8.20383 2.97946 6.5551 4.10725 5.23559C5.23504 3.91607 6.75916 2.99647 8.45229 2.61393C10.1454 2.23139 11.9169 2.40641 13.5024 3.11288" stroke="#2891CC" stroke-width="1.6099" stroke-linecap="round" stroke-linejoin="round"/>
<path d="M18.2749 4.03125L10.2254 12.0888L7.81055 9.67394" stroke="#2891CC" stroke-width="1.6099" stroke-linecap="round" stroke-linejoin="round"/>
</g>
<defs>
<clipPath id="clip0_1_6657">
<rect width="19.3188" height="19.3188" fill="white" transform="translate(0.566406 0.811523)"/>
</clipPath>
</defs>
</svg>
